<?xml version="1.0" encoding="UTF-8"?>
<svg id="Layer_1" xmlns="http://www.w3.org/2000/svg" version="1.1" viewBox="0 0 162.2 127.4">
  <!-- Generator: Adobe Illustrator 30.0.0, SVG Export Plug-In . SVG Version: 2.1.1 Build 123)  -->
  <defs>
    <style>
      .st0 {
        fill: #161616;
      }
    </style>
  </defs>
  <path class="st0" d="M56.1,16c-.2,1.5-.8,2.3-.5,3.9.6.3,1.2.3,1.9.7,0,.2.4.5.5.7-.5.4.2.6.5.6-.6,1,0,1.5.4,1.6.7,2.9.5,3.1,3.6,2.3.7-.2.9-.4,1.4-.1l.6.5h0c0,.1.3.5.3.5-.2.5,0,.4-.2.5-.3,0-.5.2-.7.3-1.2,0-3.6.9-4.7,1.2l-2.8-.7c-2.5-.7-6.5,1.5-8.3,3.1-1.2,1-1.8.9-2.5.9-2.2-.1-5.3,2.5-6.4,4.1-.4.6-.6,1.3-1.3,1.5v-.5c-.2-.8-.5-2.3-1-2.8-.2-.5-.4-1.2-.8-1.5q-.2-.5-.5-.9c-.4-.6-.6-.9-.9-1.5-.2-.5-.4-1.2-.6-1.5-.2-1-.3-1.8-.4-2.8,0-.5,0-.9,0-1.4,0-.7,0-.9.3-1.3.4-.2,0-.3.7-.4.9.5,2.2.1,3-.4.4-.3.7-.6,1-.8.6-.3,1.1,0,1.6-.4,1.4,0,2.1-1.3,1.3-2.1-.7-2,0-1.6-1-2.8-.4-.5-.4-.4-.7-.5-.5-.8-1.8-1.5-3.1-1.3-2.6,1.5-6.9,3.6-8.1,6.5-.4.9-.3,3.5.2,4.2l.3,4.4v3.4c-.2,1.6-.2,3.9,0,5.2,0,1.3.4,5.7,1.1,6.5,0,.5,0,.6.3,1.1l.5.9c.6,1.4,1.5,2.1,3,2,.4,0,1.1,0,1.4-.3h3.8c.6,0,.8,0,1.1-.3l2.5-.4h1c1.6,0,2.7-.4,4.2-.6,1-.5,1.9-.7,2.9-1.4.4-.3,1-.7,1.3-1,.4-.5.6-.8,1.1-1.2.4-.2,0-.2.5.2.8.7,1.1,2.3,1.8,3.7.3.5.6,1,.8,1.4.5.5.4.9,1,1,.2.4.5.7.8,1.1.4.5.4.7.9,1,0,.4.2.6.3,1,0,.6,0,1,0,1.6l-.3,3.9c0,1.2-.2,1.4,0,1.7h3.1c.5-2.2,1.2-5.8,1.9-7.7l.6-1.1c.4-1.3,1.2-2,1.6-3.6s1.5-3,1.5-4.6c.3-18.9,8.9-11.2,8.7-21.7-1.8-2.8-2.3-2.7-1-5.2,2.5-5-1.4-19.3-14.8-13.3-.9.4-1.8.9-2.7,1.4-2.8,1.4-1.6,2.2-2.2,4.4-1.2,4.1.4,5.5,0,7.5v-.4Z"/>
  <path class="st0" d="M76,27.1c6.9-1.7,10.9-6.2,8.1-14.7,1.4,2.8,3,5.2,5,7.2-.3,7.6-3.6,6.5-5.7,7.2-3.5.6-5.8.6-8.6,2.9-1,.7-2.7,3-3.1,4.9l-.4,1.4-.2,2.5c0,2.9,0,4.3-.8,7,0,.4-.8,1.8-.9,2.1-2,2.4-2.5,6.5-3.4,9.4-.2.8-.5,2-.7,3.1h8.9c.2-1.3.3-2.5.4-3.6,0-1.2.2-1.9.6-2.9.3-.9.9-1.6,1.2-2.5.5-.5,1.4-3.1,1.9-3.9.3,1.3,1.9,7.3,2,7.5,0,.7,0,3.7,0,5.4h23.3c.3-.5.2-1.2.4-2.3.2-1.5.4-2.4.9-3.7.7-.8,2.1-3.1,2.4-4.4.9-1.9,0-4.5-.5-6.5,0-.7,0-1.9,0-2.2.2-.8.2-.9.7-1.3l.9-.4c3.9-.3,5.4,1.4,8.3,2.2,1.4,1.1,7.1,1.2,9.2,1.3h.7c.8,0,3,.3,3.8.2,1.3-.2,1.7-1.1,1.9-2.5.9-1.8-2-8.3-2.4-10.4l-1.3-3.8c-.2-.3-2.3-5.6-2.4-6.2-.2-.2-1.1-2.5-1.6-3.2-.7-.8-2.4-1.6-3.8-1.3-.5-.3-1.3-.3-1.8-.3h-1.9c-1.2,0-2.9-.4-3,.9-.2.2,0,0-.3.3,0,0-.2.3-.2.4,0,.3-.2.5-.3.7,0,.3-.2.7-.3,1-.2.8-.4,1.6.2,2.2.7.8.4.2.7,1.5,2.7.7,2.8.9,3.5-.2h3.1c0-.2.3-.4.5-.6.4-.4,0-.3.8-.5.7.8,1.2,2.4,1.5,3.7.3,1.4.5,2.6.5,4s-.4,3.3,0,4.1v.5c0,1.3.3,0-2.8-.8-3.7-1.1-5.5.3-7.5-1.7s-2.3-1.7-2.5-2.2c-.6-.1-1.4-.7-2.2-1-1.3-.3-2.1-.4-3.6-.3h-4.4c-1.8-.2-3.3-1-2-3.6l5.6.8c1.2.3,2-.8,1.9-1.8l-.3-1.4c.7-.1,1.2-.4.6-1.3.8-.3.7-1,0-1.8l.9-1c.6-.7.9-.8,0-1.7l-1.9-1.8c0-2.9-.3-3.9-1.9-6.2.2-5.2-9.1-7.9-16.3-4-16.9-3.6-5.8,23.1-11.7,23.8l.3-.2Z"/>
  <path class="st0" d="M27,34.6v-5.5L14.5,8.1h39.7c0-.4,0-.8.2-1.2.3-1,.8-1.6,1.5-2.2H8.7l18.3,30.8v-1h0Z"/>
  <path class="st0" d="M44.5,60.9h1.4l-5.4-9.1c-.3,0-.6,0-1,0h-2.7l3.9,6.4-21.7,2.5h25.5Z"/>
  <path class="st0" d="M77,7.4c.4-.9,1-1.8,1.7-2.5h-3.4c.5.6,1,1.3,1.4,2.1,0,.2.2.4.3.5h0Z"/>
  <path class="st0" d="M106,8.1h41.4l-14.9,25.1c.3.9.6,1.7.9,2.6.2.5.3,1,.5,1.5l19.3-32.6h-48.6c.4.5.7,1.1,1,1.8.2.5.3,1,.3,1.6h0Z"/>
  <polygon class="st0" points="80.9 120 67.1 96.1 47.1 96.1 64.6 99 80.9 126.5 97.2 99.1 115.3 96.1 95.1 96.1 80.9 120"/>
  <path class="st0" d="M122.1,57l6.3-10.4c-.7,0-1.5,0-2.1-.2h-1.5l-8,13.5h1.4c7.1,0,16.3,0,23.5,0l-19.4-2.8-.2-.2Z"/>
  <polygon class="st0" points="34.8 88.3 34.8 87.1 18.6 87.8 34.8 88.3"/>
  <polygon class="st0" points="125.6 88.3 141.8 87.7 125.6 87.1 125.6 88.3"/>
  <path class="st0" d="M5.6,64h-2.4c-.8,0-1.7.3-2.3.8C.3,65.4,0,66.1,0,67v11.2h3.9v-5.7h5.3v-2.6H3.9v-2c0-.3,0-.5.3-.6s.4-.2.7-.2h5l.2-2.7c-.6,0-1.3,0-2.1-.2h-2.4v-.2Z"/>
  <path class="st0" d="M22.5,77c.5-.6.9-1.3,1.1-2.3s.3-2.1.3-3.6-.1-2.6-.3-3.6c-.2-.9-.6-1.7-1.1-2.2-.5-.6-1.2-.9-2-1.2-.8-.2-1.8-.3-3-.3s-2.2,0-3,.3c-.8.2-1.5.6-2,1.2s-.9,1.3-1.1,2.2c-.2.9-.3,2.1-.3,3.6s.1,2.6.3,3.6.6,1.7,1.1,2.3c.5.6,1.2.9,2,1.2s1.8.3,3,.3,2.2,0,3-.3,1.5-.6,2-1.2ZM19.7,73.9c-.1.6-.4,1.1-.7,1.3-.3.2-.8.4-1.4.4s-1.1,0-1.4-.4c-.3-.2-.6-.7-.7-1.3-.1-.6-.2-1.6-.2-2.7s0-2.1.2-2.7c.1-.6.4-1.1.7-1.3.3-.2.8-.4,1.4-.4s1.1,0,1.4.4c.3.2.6.7.7,1.3.1.6.2,1.6.2,2.7s0,2.1-.2,2.7Z"/>
  <path class="st0" d="M36.2,72.6c-.3-.3-.5-.5-.8-.7-.3,0-.6-.2-.8-.2h0c.7-.2,1.3-.4,1.7-.7.4-.3.7-.7.9-1.2s.3-1,.3-1.6c0-1.1-.2-2-.6-2.6-.4-.6-1-1-1.8-1.3s-1.9-.4-3.2-.4h-4.1c-.5,0-1.1,0-1.7,0v14.2h3.8v-5.4h1.8c.4,0,.7,0,.9.2.2,0,.4.4.5.9l1,4.2h4l-1.2-4.4c0-.5-.3-1-.5-1.3l-.2.2ZM33.3,69.5c0,.3-.3.4-.6.5-.3,0-.6,0-1.1,0h-1.9v-3.4h1.9c.7,0,.9,0,1.1,0,.3,0,.5.3.6.5s.2.6.2,1.1,0,.8-.2,1.1Z"/>
  <path class="st0" d="M47.5,78.2c.8,0,1.5,0,2.2-.2l-.2-2.8h-5.3c-.3,0-.5,0-.7-.2s-.2-.4-.2-.6v-2.2h5.5v-2.6h-5.5v-1.8c0-.3,0-.5.2-.6s.4-.2.7-.2h5.3l.2-2.8c-.7,0-1.4,0-2.2-.2h-4.8c-.9,0-1.7.3-2.3.8-.6.6-.9,1.3-.9,2.2v8.2c0,.9.3,1.6.9,2.2.6.6,1.4.8,2.3.8h2.4c.8,0,1.6,0,2.4,0Z"/>
  <path class="st0" d="M59.7,78c.2-.2.4-.4.5-.8l3.6-13.1h-4l-2.2,9.7c0,.3,0,.5-.2.8s0,.5,0,.8h-.5c0-.3,0-.5,0-.8s0-.5-.2-.8l-2.2-9.7h-4l3.7,13.1c0,.3.2.6.5.8.2.2.5.3.9.3h3.4c.3,0,.6,0,.9-.3Z"/>
  <path class="st0" d="M73.1,78.2c.8,0,1.5,0,2.2-.2l-.2-2.8h-5.3c-.3,0-.5,0-.7-.2s-.2-.4-.2-.6v-2.2h5.5v-2.6h-5.5v-1.8c0-.3,0-.5.2-.6s.4-.2.7-.2h5.3l.2-2.8c-.7,0-1.4,0-2.2-.2h-4.8c-.9,0-1.7.3-2.3.8-.6.6-.9,1.3-.9,2.2v8.2c0,.9.3,1.6.9,2.2s1.4.8,2.3.8h2.4c.8,0,1.6,0,2.4,0Z"/>
  <path class="st0" d="M83.6,73.1c.2,0,.4.4.5.9l1,4.2h4l-1.2-4.4c0-.5-.3-1-.5-1.3-.3-.3-.5-.5-.8-.7-.3,0-.6-.2-.8-.2h0c.7-.2,1.3-.4,1.7-.7.4-.3.7-.7.9-1.2s.3-1,.3-1.6c0-1.1-.2-2-.6-2.6s-1-1-1.8-1.3c-.8-.3-1.9-.4-3.2-.4h-4.1c-.5,0-1.1,0-1.7,0v14.2h3.8v-5.4h1.8c.4,0,.7,0,.9.2l-.2.2ZM80.9,66.7h1.9c.7,0,.9,0,1.1,0,.3,0,.5.3.6.5s.2.6.2,1.1,0,.8-.2,1.1-.3.4-.6.5c-.3,0-.6,0-1.1,0h-1.9s0-3.4,0-3.4Z"/>
  <path class="st0" d="M101.8,78.3v-4.6l4.7-9.6h-4l-2,4.8c0,.3-.2.6-.3.9,0,.3,0,.7-.2,1h-.2c0-.3,0-.6-.2-1,0-.3-.2-.6-.3-.9l-2.1-4.8h-4l4.7,9.6v4.5h3.9Z"/>
  <path class="st0" d="M119.1,67.6c-.2-.9-.6-1.7-1.1-2.2-.5-.6-1.2-.9-2-1.2-.8-.2-1.8-.3-3-.3s-2.2.1-3,.3-1.5.6-2,1.2-.9,1.3-1.1,2.2c-.2.9-.3,2.1-.3,3.6s0,2.6.3,3.6c.2,1,.6,1.7,1.1,2.3.5.6,1.2.9,2,1.2s1.8.3,3,.3,2.2,0,3-.3,1.5-.6,2-1.2.9-1.3,1.1-2.3.3-2.1.3-3.6,0-2.6-.3-3.6ZM115.2,73.9c0,.6-.4,1.1-.7,1.3-.3.2-.8.4-1.4.4s-1.1,0-1.4-.4c-.3-.2-.6-.7-.7-1.3,0-.6-.2-1.6-.2-2.7s0-2.1.2-2.7c0-.6.4-1.1.7-1.3.3-.2.8-.4,1.4-.4s1.1,0,1.4.4c.3.2.6.7.7,1.3,0,.6.2,1.6.2,2.7s0,2.1-.2,2.7Z"/>
  <path class="st0" d="M121.4,64.1v8.4c0,1.5.2,2.6.6,3.5s1,1.5,2,1.9c.9.4,2.1.6,3.7.6s2.6-.2,3.4-.6c.8-.4,1.5-1,1.8-1.9.4-.9.6-2.1.6-3.5v-8.4h-3.9v8.4c0,.8,0,1.4-.2,1.9s-.3.8-.7.9c-.3.2-.8.3-1.3.3s-1,0-1.3-.3c-.3-.2-.5-.5-.7-.9s-.2-1.1-.2-1.9v-8.4h-3.9,0Z"/>
  <path class="st0" d="M144.8,70.9v1.2c0,.4,0,.8.1,1.3h-.2c-.2-.4-.3-.9-.5-1.3s-.4-.8-.6-1.1l-3.3-5.8c-.2-.4-.4-.6-.6-.8-.2-.2-.5-.3-.9-.3h-1.7c-.9,0-1.4.5-1.4,1.4v12.8h3.6v-8.2c0-.4,0-.8-.1-1.2h.2c.1.4.2.8.4,1.2s.3.8.5,1.1l3.5,6c.2.4.4.6.6.8.2.2.5.3.9.3h1.7c.9,0,1.3-.5,1.3-1.4v-12.8h-3.6v6.8h.1Z"/>
  <path class="st0" d="M158.5,70.1v4.8h-.2c-.2,0-.5.2-.8.2h-1c-.5,0-1,0-1.3-.3s-.5-.6-.6-1.2-.2-1.4-.2-2.5,0-1.5.1-2.1c0-.5.2-1,.4-1.3s.4-.5.8-.6.7-.2,1.2-.2h4.4l.3-2.8c-.5,0-.9-.2-1.4-.3-.5,0-1,0-1.5-.2h-1.9c-1.6,0-2.9.2-3.8.7-.9.5-1.6,1.2-2.1,2.3-.4,1.1-.6,2.5-.6,4.4s.2,3.2.5,4.2c.3,1.1.8,1.9,1.5,2.4s1.6.7,2.6.7,1.4,0,2-.4c.6-.2,1.1-.5,1.4-.9.2-.2.4-.4.6-.6l.4,1.5h2.8v-8.2h-3.7v.4Z"/>
  <path class="st0" d="M44.3,87.8h4v-1h-4v-2.2c0-.3,0-.6.2-.7,0,0,.4-.2.7-.2h3.6v-1h-4c-.5,0-1,.2-1.4.5-.3.3-.5.7-.5,1.3v8h1.2v-4.5l.2-.2Z"/>
  <rect class="st0" x="54.8" y="82.6" width="1.2" height="9.7"/>
  <polygon class="st0" points="66.2 92.3 66.2 83.7 69.3 83.7 69.3 82.6 66.2 82.6 65 82.6 61.9 82.6 61.9 83.7 65 83.7 65 92.3 66.2 92.3"/>
  <path class="st0" d="M76.8,84.4c0,.2.2.4.3.6l3.3,6.9c0,0,0,.2.2.3h1.5c.3,0,.5-.2.5-.5v-9.2h-1.2v8.4h-.2c0-.2-.2-.5-.3-.7,0-.2-.2-.5-.3-.7l-3.2-6.7c0,0,0-.2-.2-.3h-1.5c-.3,0-.5.2-.5.5v9.2h1.2v-8.5h.2c0,.2,0,.4.3.6h-.1Z"/>
  <path class="st0" d="M90.6,83.9c0,0,.3-.2.6-.2h3.9v-1h-4.1c-.6,0-1,0-1.4.4-.3.3-.5.7-.5,1.2v6.3c0,.5.2.9.5,1.2.3.3.8.5,1.4.5h4.1v-1h-3.9c-.3,0-.5,0-.6-.2,0,0-.2-.4-.2-.7v-2.7h4.2v-1h-4.2v-2.1c0-.3,0-.6.2-.7h0Z"/>
  <path class="st0" d="M105.2,91.2c-.3,0-.7,0-1.2,0h-3v.9c.6,0,1.2.2,1.7.2h1.2c.6,0,1,0,1.5,0,.4,0,.7-.2,1-.4s.5-.4.6-.8c0-.3.2-.8.2-1.4s0-1.3-.4-1.8c-.3-.4-.8-.8-1.5-.9l-2-.5c-.4,0-.7-.3-.9-.5-.2-.2-.3-.6-.3-1.1s0-.6,0-.8.2-.3.3-.4c.2,0,.4,0,.6-.2h3.6v-.9c-.4,0-.9-.2-1.4-.2h-2.8c-.4,0-.7.2-1,.3s-.4.4-.6.8c0,.3-.2.8-.2,1.4s0,1.3.4,1.8.8.7,1.5.9l2,.5c.3,0,.5.2.7.3.2,0,.3.3.4.5,0,.2,0,.5,0,.9s0,.8-.2,1c0,.2-.3.4-.6.4h.2Z"/>
  <path class="st0" d="M117.3,91.2c-.3,0-.7,0-1.2,0h-3v.9c.6,0,1.2.2,1.7.2h1.2c.6,0,1,0,1.5,0,.4,0,.7-.2,1-.4s.5-.4.6-.8c0-.3.2-.8.2-1.4s0-1.3-.4-1.8c-.3-.4-.8-.8-1.5-.9l-2-.5c-.4,0-.7-.3-.9-.5-.2-.2-.3-.6-.3-1.1s0-.6,0-.8.2-.3.3-.4c.2,0,.4,0,.6-.2h3.6v-.9c-.4,0-.9-.2-1.4-.2h-2.8c-.4,0-.7.2-1,.3s-.4.4-.6.8c0,.3-.2.8-.2,1.4s0,1.3.4,1.8.8.7,1.5.9l2,.5c.3,0,.5.2.7.3.2,0,.3.3.4.5,0,.2,0,.5,0,.9s0,.8-.2,1c0,.2-.3.4-.6.4h.2Z"/>
  <path class="st0" d="M46.5,115.5c-.2,0-.3,0-.4,0,0,0,0-.2,0-.3v-6.3h-2.8v7c0,.6.2,1.1.6,1.5s.9.6,1.6.6h2.2c.7,0,1.5,0,2.1-.2v-2.1h-3.2Z"/>
  <rect class="st0" x="50.4" y="108.7" width="2.8" height="9"/>
  <path class="st0" d="M112.6,112.4v1.6h0c0-.3-.2-.6-.3-.8,0-.3-.2-.5-.4-.7l-1.9-2.9c-.2-.3-.3-.5-.4-.6s-.4-.2-.6-.2h-1.1c-.7,0-1,.3-1,1v8h2.6v-5.4h0c0,.3.2.5.3.8,0,.3.2.5.3.7l2,3.1c0,.3.3.5.4.6s.4.2.7.2h1.1c.7,0,1-.3,1-1v-8h-2.6v3.7h0Z"/>
  <path class="st0" d="M121.6,108.7l-1.1,2.8c0,.2,0,.4-.2.6,0,.2,0,.4,0,.6h-.2c0-.2,0-.4,0-.6,0-.2,0-.4-.2-.6l-1.1-2.8h-2.9l3,6.2v2.8h2.8v-2.8l3-6.2h-2.9Z"/>
</svg>